static_grf.mot
version=1
nRows=22
nColumns 19
inDegrees=yes
endheader
time	1_ground_force_vx	1_ground_force_vy	1_ground_force_vz	1_ground_force_px	1_ground_force_py	1_ground_force_pz	1_ground_torque_x	1_ground_torque_y	1_ground_torque_z	2_ground_force_vx	2_ground_force_vy	2_ground_force_vz	2_ground_force_px	2_ground_force_py	2_ground_force_pz	2_ground_torque_x	2_ground_torque_y	2_ground_torque_z
            0.503500	           -2.033008	          407.897035	          -30.070897	           -0.290615	            0.006083	           -0.375064	           -0.014367	            2.882516	           -0.212504	           -6.493701	          437.838066	           15.267585	           -0.297273	            0.005474	           -0.715406	           -0.021066	            1.420346	            0.049528
            0.504000	           -2.215370	          407.354660	          -29.705914	           -0.290860	            0.006084	           -0.375280	           -0.015532	            2.855940	           -0.208266	           -6.722716	          436.364703	           15.074716	           -0.297579	            0.005470	           -0.714794	           -0.022190	            1.440352	            0.049759
            0.504500	           -2.032699	          408.076741	          -29.932556	           -0.290685	            0.006082	           -0.374904	           -0.014332	            2.877164	           -0.211041	           -6.632339	          437.285806	           15.077961	           -0.297403	            0.005472	           -0.715045	           -0.022841	            1.505940	            0.051926
            0.505000	           -2.170423	          407.896812	          -30.024700	           -0.290672	            0.006083	           -0.375154	           -0.015442	            2.901991	           -0.213611	           -6.443549	          436.917699	           15.217352	           -0.297453	            0.005473	           -0.715286	           -0.020883	            1.415993	            0.049317
            0.505500	           -2.032957	          406.995934	          -30.120618	           -0.290838	            0.006084	           -0.375473	           -0.014258	            2.854489	           -0.211253	           -6.725416	          437.101662	           14.983488	           -0.297254	            0.005473	           -0.715167	           -0.022294	            1.448939	            0.049668
            0.506000	           -2.215499	          406.814226	          -29.799945	           -0.290794	            0.006083	           -0.375127	           -0.015573	            2.859481	           -0.209463	           -6.676551	          436.549180	           15.028425	           -0.297422	            0.005471	           -0.714887	           -0.022016	            1.439499	            0.049555
            0.506500	           -2.078686	          406.995728	          -30.074648	           -0.290657	            0.006083	           -0.375146	           -0.014606	            2.859707	           -0.211316	           -6.631634	          437.101330	           15.171160	           -0.297295	            0.005473	           -0.715294	           -0.021324	            1.405531	            0.048784
            0.507000	           -2.032663	          406.635009	          -30.030452	           -0.290785	            0.006084	           -0.375386	           -0.014605	            2.921653	           -0.215767	           -6.441575	          436.365383	           15.168452	           -0.297449	            0.005472	           -0.715007	           -0.020829	            1.411021	            0.049048
            0.507500	           -2.170714	          406.996300	          -30.211988	           -0.290700	            0.006083	           -0.375024	           -0.015540	            2.913670	           -0.216286	           -6.441014	          436.182079	           14.933155	           -0.297563	            0.005470	           -0.714785	           -0.021335	            1.444766	            0.049463
            0.508000	           -2.032582	          406.815048	          -29.983823	           -0.290904	            0.006083	           -0.375189	           -0.014467	            2.895434	           -0.213405	           -6.675804	          436.364370	           15.215480	           -0.297535	            0.005471	           -0.714922	           -0.021520	            1.406642	            0.049048
            0.508500	           -2.169869	          407.355259	          -29.843595	           -0.290812	            0.006083	           -0.375109	           -0.015032	            2.822011	           -0.206746	           -6.722072	          436.180730	           15.027130	           -0.297476	            0.005471	           -0.714744	           -0.021979	            1.426167	            0.049134
            0.509000	           -2.124286	          407.535896	          -29.934648	           -0.290770	            0.006084	           -0.375249	           -0.014999	            2.877418	           -0.211354	           -6.584784	          437.101500	           15.171140	           -0.297252	            0.005473	           -0.715294	           -0.021242	            1.410022	            0.048940
            0.509500	           -1.895266	          407.356098	          -30.027702	           -0.290536	            0.006083	           -0.375125	           -0.013464	            2.893804	           -0.213313	           -6.629057	          436.365376	           14.980820	           -0.297318	            0.005471	           -0.714836	           -0.021568	            1.419742	            0.048741
            0.510000	           -1.757363	          407.175239	          -29.891248	           -0.290510	            0.006083	           -0.375115	           -0.012324	            2.855437	           -0.209621	           -6.769483	          436.363864	           15.262448	           -0.297451	            0.005471	           -0.714838	           -0.022265	            1.435192	            0.050198
            0.510500	           -1.941061	          407.716424	          -29.980186	           -0.290405	            0.006083	           -0.375060	           -0.013631	            2.863134	           -0.210532	           -6.628372	          436.181068	           15.027091	           -0.297176	            0.005472	           -0.714787	           -0.022136	            1.456660	            0.050184
            0.511000	           -2.170180	          408.437050	          -29.884813	           -0.290285	            0.006082	           -0.374797	           -0.015169	            2.854858	           -0.208886	           -6.585428	          437.285473	           15.218726	           -0.297054	            0.005474	           -0.715215	           -0.021520	            1.428973	            0.049732
            0.511500	           -2.078737	          407.896830	          -30.024928	           -0.290622	            0.006083	           -0.375014	           -0.014650	            2.874699	           -0.211604	           -6.771539	          436.916850	           15.123635	           -0.297282	            0.005473	           -0.715246	           -0.022388	            1.444543	            0.050002
            0.512000	           -2.170486	          406.995907	          -30.120277	           -0.290804	            0.006084	           -0.375245	           -0.015279	            2.865024	           -0.212030	           -6.722757	          436.365038	           14.980859	           -0.297280	            0.005472	           -0.714839	           -0.023071	            1.497522	            0.051411
            0.512500	           -1.987084	          408.077143	          -30.024382	           -0.290530	            0.006082	           -0.374822	           -0.014264	            2.929400	           -0.215531	           -6.628393	          436.181235	           14.980163	           -0.297259	            0.005472	           -0.715001	           -0.021431	            1.410256	            0.048434
            0.513000	           -2.169884	          406.814628	          -29.891770	           -0.290689	            0.006083	           -0.375228	           -0.015439	            2.894461	           -0.212678	           -6.816313	          436.363528	           15.309396	           -0.297195	            0.005472	           -0.714968	           -0.022945	            1.468891	            0.051535
            0.513500	           -2.262369	          408.077483	          -30.115411	           -0.290572	            0.006083	           -0.375158	           -0.015834	            2.856028	           -0.210770	           -6.582228	          436.365713	           14.933872	           -0.297190	            0.005472	           -0.714923	           -0.021825	            1.446864	            0.049516
            0.514000	           -2.078931	          407.716988	          -30.117412	           -0.290415	            0.006083	           -0.375077	           -0.014651	            2.873242	           -0.212242	           -6.675784	          436.364203	           15.262408	           -0.297281	            0.005472	           -0.714881	           -0.022541	            1.473428	            0.051535
